<?xml version="1.0" encoding="utf-8"?>
<!-- Generator: Adobe Illustrator 26.0.1, SVG Export Plug-In . SVG Version: 6.00 Build 0)  -->
<svg version="1.1" id="Layer_1" xmlns="http://www.w3.org/2000/svg" xmlns:xlink="http://www.w3.org/1999/xlink" x="0px" y="0px"
	 viewBox="1032.02 841.25 935.97 317.51" style="enable-background:new 1032.02 841.25 935.97 317.51;" xml:space="preserve">
<style type="text/css">
	.st0{fill:#141708;}
	.st1{fill:#21211F;}
	.st2{fill:#2D2D2A;}
	.st3{fill:#FFFFFF;}
	.st4{fill:#7E7E7A;}
</style>
<g>
	<g>
		<g>
			<g>
				<path class="st2" d="M1051.69,861.62h-19.67v-20.37h19.67c17.42,0,33.11,7.59,43.92,19.63c-4.51,6.13-7.99,13.05-10.2,20.52
					C1078.79,869.61,1066.16,861.62,1051.69,861.62z"/>
				<path class="st2" d="M1085.42,1025.67c2.21,7.47,5.69,14.39,10.2,20.52c-10.81,12.04-26.5,19.63-43.92,19.63h-19.67v-20.37
					h19.67C1066.16,1045.45,1078.79,1037.46,1085.42,1025.67z"/>
				<rect x="1090.35" y="943.35" class="st2" width="20.37" height="20.37"/>
			</g>
			<g>
				<rect x="1090.35" y="943.35" class="st2" width="28.02" height="20.37"/>
				<path class="st2" d="M1110.72,900.28v106.5c0,21.32,17.34,38.66,38.66,38.66h9.32c-1.98,2.91-3.14,6.41-3.14,10.19
					s1.15,7.28,3.14,10.19h-9.32c-32.55,0-59.03-26.48-59.03-59.03v-106.5c0-32.55,26.48-59.03,59.03-59.03h62.87v20.37h-62.87
					C1128.06,861.62,1110.72,878.96,1110.72,900.28z"/>
			</g>
			<g>
				<rect x="1058.48" y="943.35" class="st2" width="24.22" height="20.37"/>
				<rect x="1090.35" y="943.35" class="st2" width="78.7" height="20.37"/>
			</g>
			<circle class="st2" cx="1173.72" cy="1055.63" r="10.19"/>
			<circle class="st2" cx="1173.72" cy="1055.63" r="10.19"/>
			<circle class="st2" cx="1202.06" cy="1055.63" r="10.19"/>
		</g>
		<g>
			<path class="st2" d="M1309.27,1051.31c-17.56-9.67-31.33-23.07-41.32-40.21c-9.99-17.14-14.98-36.32-14.98-57.56
				c0-21.24,4.99-40.42,14.98-57.56c9.98-17.14,23.81-30.54,41.48-40.21c17.66-9.67,37.42-14.51,59.3-14.51
				c16.4,0,31.54,2.74,45.42,8.2c13.88,5.47,25.65,13.46,35.32,23.97l-14.82,14.82c-17.24-17.45-39.01-26.18-65.29-26.18
				c-17.46,0-33.33,4-47.63,11.99c-14.3,7.99-25.5,18.92-33.59,32.8c-8.1,13.88-12.14,29.44-12.14,46.68
				c0,17.24,4.05,32.8,12.14,46.68c8.09,13.88,19.29,24.81,33.59,32.8c14.3,7.99,30.17,11.99,47.63,11.99
				c26.49,0,48.26-8.83,65.29-26.49l14.82,14.82c-9.67,10.52-21.5,18.56-35.48,24.13c-13.99,5.57-29.17,8.36-45.58,8.36
				C1346.53,1065.81,1326.82,1060.98,1309.27,1051.31z"/>
			<path class="st2" d="M1683.81,843.14v220.78h-23.02V962.05h-138.15v101.87h-23.34V843.14h23.34v98.41h138.15v-98.41H1683.81z"/>
			<path class="st2" d="M1792.77,1051.15c-17.77-9.78-31.65-23.18-41.63-40.21c-9.99-17.03-14.98-36.16-14.98-57.4
				c0-21.24,4.99-40.37,14.98-57.4c9.98-17.03,23.86-30.44,41.63-40.21c17.77-9.78,37.58-14.67,59.45-14.67
				c21.87,0,41.58,4.84,59.14,14.51c17.55,9.67,31.38,23.08,41.48,40.21c10.09,17.14,15.14,36.33,15.14,57.56
				c0,21.24-5.05,40.43-15.14,57.56c-10.09,17.14-23.92,30.54-41.48,40.21c-17.56,9.67-37.27,14.51-59.14,14.51
				C1830.35,1065.81,1810.54,1060.93,1792.77,1051.15z M1899.54,1033.17c14.08-7.89,25.12-18.82,33.12-32.8
				c7.99-13.98,11.99-29.59,11.99-46.84c0-17.24-4-32.85-11.99-46.84c-7.99-13.98-19.03-24.92-33.12-32.8
				c-14.09-7.89-29.86-11.83-47.31-11.83c-17.46,0-33.27,3.94-47.47,11.83c-14.19,7.88-25.34,18.82-33.43,32.8
				c-8.1,13.99-12.14,29.6-12.14,46.84c0,17.24,4.05,32.86,12.14,46.84c8.09,13.99,19.24,24.92,33.43,32.8
				c14.19,7.89,30.01,11.83,47.47,11.83C1869.68,1045,1885.45,1041.06,1899.54,1033.17z"/>
		</g>
	</g>
<!--	<g>-->
<!--		<path class="st2" d="M1051.14,1138.98v12.27h-5.02v-12.37l-14.09-23.12h5.42l11.36,18.71l11.41-18.71h5.02L1051.14,1138.98z"/>-->
<!--		<path class="st2" d="M1090.38,1149.3c-2.87-1.57-5.13-3.74-6.77-6.52c-1.64-2.77-2.46-5.86-2.46-9.28c0-3.41,0.82-6.51,2.46-9.28-->
<!--			c1.64-2.77,3.89-4.94,6.77-6.51c2.87-1.57,6.1-2.36,9.68-2.36c3.55,0,6.76,0.79,9.63,2.36c2.87,1.57,5.12,3.73,6.74,6.49-->
<!--			c1.62,2.76,2.43,5.86,2.43,9.3c0,3.45-0.81,6.55-2.43,9.3c-1.62,2.75-3.87,4.92-6.74,6.49c-2.87,1.57-6.08,2.36-9.63,2.36-->
<!--			C1096.48,1151.65,1093.25,1150.87,1090.38,1149.3z M1107.08,1145.37c2.08-1.18,3.72-2.81,4.92-4.89c1.2-2.08,1.8-4.4,1.8-6.97-->
<!--			c0-2.57-0.6-4.89-1.8-6.97c-1.2-2.08-2.84-3.71-4.92-4.89c-2.08-1.18-4.42-1.77-7.02-1.77c-2.6,0-4.96,0.59-7.07,1.77-->
<!--			c-2.11,1.18-3.77,2.81-4.97,4.89c-1.2,2.08-1.8,4.4-1.8,6.97c0,2.57,0.6,4.89,1.8,6.97c1.2,2.08,2.86,3.71,4.97,4.89-->
<!--			c2.11,1.18,4.47,1.77,7.07,1.77C1102.66,1147.14,1105,1146.55,1107.08,1145.37z"/>-->
<!--		<path class="st2" d="M1145.49,1147.6c-2.64-2.7-3.96-6.59-3.96-11.66v-20.18h5.07v19.98c0,7.61,3.33,11.41,9.99,11.41-->
<!--			c3.24,0,5.73-0.94,7.45-2.81c1.72-1.88,2.59-4.74,2.59-8.59v-19.98h4.92v20.18c0,5.1-1.32,9-3.95,11.69-->
<!--			c-2.64,2.69-6.32,4.03-11.05,4.03C1151.81,1151.65,1148.12,1150.3,1145.49,1147.6z"/>-->
<!--		<path class="st2" d="M1220.88,1151.25l-7.66-10.9c-0.95,0.07-1.69,0.1-2.23,0.1h-8.77v10.8h-5.07v-35.49h13.84-->
<!--			c4.6,0,8.21,1.1,10.85,3.3c2.64,2.2,3.95,5.22,3.95,9.08c0,2.74-0.68,5.07-2.03,7c-1.35,1.93-3.28,3.33-5.78,4.21l8.42,11.91-->
<!--			H1220.88z M1218.19,1134.06c1.69-1.39,2.53-3.36,2.53-5.93c0-2.57-0.84-4.54-2.53-5.91c-1.69-1.37-4.14-2.05-7.35-2.05h-8.62-->
<!--			v15.97h8.62C1214.05,1136.14,1216.5,1135.45,1218.19,1134.06z"/>-->
<!--		<path class="st2" d="M1308.89,1115.76l-15.56,35.49h-5.02l-15.61-35.49h5.47l12.78,29.15l12.88-29.15H1308.89z"/>-->
<!--		<path class="st2" d="M1334.59,1149.3c-2.87-1.57-5.13-3.74-6.77-6.52c-1.64-2.77-2.46-5.86-2.46-9.28c0-3.41,0.82-6.51,2.46-9.28-->
<!--			c1.64-2.77,3.89-4.94,6.77-6.51c2.87-1.57,6.1-2.36,9.68-2.36c3.55,0,6.76,0.79,9.63,2.36c2.87,1.57,5.12,3.73,6.74,6.49-->
<!--			c1.62,2.76,2.43,5.86,2.43,9.3c0,3.45-0.81,6.55-2.43,9.3c-1.62,2.75-3.87,4.92-6.74,6.49c-2.87,1.57-6.08,2.36-9.63,2.36-->
<!--			C1340.69,1151.65,1337.47,1150.87,1334.59,1149.3z M1351.3,1145.37c2.08-1.18,3.72-2.81,4.92-4.89c1.2-2.08,1.8-4.4,1.8-6.97-->
<!--			c0-2.57-0.6-4.89-1.8-6.97c-1.2-2.08-2.84-3.71-4.92-4.89c-2.08-1.18-4.42-1.77-7.02-1.77c-2.6,0-4.96,0.59-7.07,1.77-->
<!--			c-2.11,1.18-3.77,2.81-4.97,4.89c-1.2,2.08-1.8,4.4-1.8,6.97c0,2.57,0.6,4.89,1.8,6.97c1.2,2.08,2.86,3.71,4.97,4.89-->
<!--			c2.11,1.18,4.47,1.77,7.07,1.77C1346.88,1147.14,1349.22,1146.55,1351.3,1145.37z"/>-->
<!--		<path class="st2" d="M1386.05,1115.76h5.07v35.49h-5.07V1115.76z"/>-->
<!--		<path class="st2" d="M1423.24,1149.3c-2.86-1.57-5.09-3.73-6.72-6.49c-1.62-2.75-2.43-5.86-2.43-9.3c0-3.45,0.81-6.55,2.43-9.3-->
<!--			c1.62-2.75,3.87-4.92,6.74-6.49c2.87-1.57,6.08-2.36,9.63-2.36c2.77,0,5.31,0.47,7.61,1.39c2.3,0.93,4.26,2.31,5.88,4.13-->
<!--			l-3.29,3.19c-2.67-2.81-6-4.21-9.99-4.21c-2.64,0-5.02,0.59-7.15,1.77c-2.13,1.18-3.79,2.81-4.99,4.89c-1.2,2.08-1.8,4.4-1.8,6.97-->
<!--			c0,2.57,0.6,4.89,1.8,6.97c1.2,2.08,2.87,3.71,4.99,4.89c2.13,1.18,4.51,1.77,7.15,1.77c3.95,0,7.28-1.42,9.99-4.26l3.29,3.19-->
<!--			c-1.62,1.83-3.59,3.21-5.91,4.16c-2.32,0.95-4.86,1.42-7.63,1.42C1429.3,1151.65,1426.1,1150.87,1423.24,1149.3z"/>-->
<!--		<path class="st2" d="M1494.6,1146.84v4.41h-25.76v-35.49h25.05v4.41h-19.98v10.9h17.8v4.31h-17.8v11.46H1494.6z"/>-->
<!--		<path class="st2" d="M1521.39,1145.6c0.62,0.66,0.94,1.48,0.94,2.46c0,0.51-0.06,1-0.18,1.47c-0.12,0.47-0.35,1.2-0.68,2.18-->
<!--			l-2.38,7.05h-3.19l1.88-7.55c-0.64-0.24-1.16-0.63-1.55-1.19c-0.39-0.56-0.58-1.21-0.58-1.95c0-1.01,0.32-1.84,0.96-2.48-->
<!--			c0.64-0.64,1.45-0.96,2.43-0.96C1519.98,1144.61,1520.77,1144.94,1521.39,1145.6z"/>-->
<!--		<path class="st2" d="M1568.98,1151.25l-7.66-10.9c-0.95,0.07-1.69,0.1-2.23,0.1h-8.77v10.8h-5.07v-35.49h13.84-->
<!--			c4.6,0,8.21,1.1,10.85,3.3c2.64,2.2,3.95,5.22,3.95,9.08c0,2.74-0.68,5.07-2.03,7c-1.35,1.93-3.28,3.33-5.78,4.21l8.42,11.91-->
<!--			H1568.98z M1566.29,1134.06c1.69-1.39,2.53-3.36,2.53-5.93c0-2.57-0.84-4.54-2.53-5.91c-1.69-1.37-4.14-2.05-7.35-2.05h-8.62-->
<!--			v15.97h8.62C1562.15,1136.14,1564.6,1135.45,1566.29,1134.06z"/>-->
<!--		<path class="st2" d="M1623.07,1146.84v4.41h-25.76v-35.49h25.05v4.41h-19.98v10.9h17.8v4.31h-17.8v11.46H1623.07z"/>-->
<!--		<path class="st2" d="M1651.56,1120.17v12.37h17.8v4.36h-17.8v14.35h-5.07v-35.49h25.05v4.41H1651.56z"/>-->
<!--		<path class="st2" d="M1693.9,1115.76h5.07v31.08h19.22v4.41h-24.29V1115.76z"/>-->
<!--		<path class="st2" d="M1764.98,1146.84v4.41h-25.76v-35.49h25.05v4.41h-19.98v10.9h17.8v4.31h-17.8v11.46H1764.98z"/>-->
<!--		<path class="st2" d="M1794.51,1149.3c-2.86-1.57-5.09-3.73-6.72-6.49c-1.62-2.75-2.43-5.86-2.43-9.3c0-3.45,0.81-6.55,2.43-9.3-->
<!--			c1.62-2.75,3.87-4.92,6.74-6.49c2.87-1.57,6.08-2.36,9.63-2.36c2.77,0,5.31,0.47,7.61,1.39c2.3,0.93,4.26,2.31,5.88,4.13-->
<!--			l-3.29,3.19c-2.67-2.81-6-4.21-9.99-4.21c-2.64,0-5.02,0.59-7.15,1.77c-2.13,1.18-3.79,2.81-4.99,4.89c-1.2,2.08-1.8,4.4-1.8,6.97-->
<!--			c0,2.57,0.6,4.89,1.8,6.97c1.2,2.08,2.87,3.71,4.99,4.89c2.13,1.18,4.51,1.77,7.15,1.77c3.95,0,7.28-1.42,9.99-4.26l3.29,3.19-->
<!--			c-1.62,1.83-3.59,3.21-5.91,4.16c-2.32,0.95-4.86,1.42-7.63,1.42C1800.57,1151.65,1797.37,1150.87,1794.51,1149.3z"/>-->
<!--		<path class="st2" d="M1846.76,1120.17h-12.17v-4.41h29.35v4.41h-12.17v31.08h-5.02V1120.17z"/>-->
<!--		<path class="st2" d="M1910.43,1146.84v4.41h-25.76v-35.49h25.05v4.41h-19.98v10.9h17.8v4.31h-17.8v11.46H1910.43z"/>-->
<!--		<path class="st2" d="M1933.86,1115.76h14.96c3.75,0,7.08,0.74,9.99,2.23c2.91,1.49,5.16,3.57,6.77,6.26-->
<!--			c1.61,2.69,2.41,5.77,2.41,9.25c0,3.48-0.8,6.57-2.41,9.25c-1.61,2.69-3.86,4.77-6.77,6.26c-2.91,1.49-6.24,2.23-9.99,2.23h-14.96-->
<!--			V1115.76z M1948.51,1146.84c2.87,0,5.4-0.56,7.58-1.67c2.18-1.12,3.86-2.68,5.04-4.69c1.18-2.01,1.77-4.33,1.77-6.97-->
<!--			c0-2.64-0.59-4.96-1.77-6.97c-1.18-2.01-2.86-3.57-5.04-4.69c-2.18-1.12-4.71-1.67-7.58-1.67h-9.58v26.67H1948.51z"/>-->
<!--	</g>-->
</g>
</svg>
